<?xml version="1.0" encoding="utf-8"?>
<!-- Generator: Adobe Illustrator 16.0.0, SVG Export Plug-In . SVG Version: 6.00 Build 0)  -->
<!DOCTYPE svg PUBLIC "-//W3C//DTD SVG 1.1//EN" "http://www.w3.org/Graphics/SVG/1.1/DTD/svg11.dtd">
<svg version="1.1" id="Layer_1" xmlns="http://www.w3.org/2000/svg" xmlns:xlink="http://www.w3.org/1999/xlink" x="0px" y="0px"
	 width="434.024px" height="134.667px" viewBox="0 0 434.024 134.667" enable-background="new 0 0 434.024 134.667"
	 xml:space="preserve">
<path fill="#D7DF27" d="M130.376,67.508c0,34.685-28.121,62.805-62.805,62.805c-34.688,0-62.805-28.12-62.805-62.805
	c0-34.69,28.118-62.805,62.805-62.805C102.255,4.703,130.376,32.818,130.376,67.508z"/>
<path fill="#D7DF27" d="M276.108,67.508c0,34.685-28.12,62.805-62.805,62.805c-34.687,0-62.806-28.12-62.806-62.805
	c0-34.69,28.119-62.805,62.806-62.805C247.988,4.703,276.108,32.818,276.108,67.508z"/>
<path fill="#D7DF27" d="M423.841,67.508c0,34.685-28.12,62.805-62.806,62.805c-34.687,0-62.805-28.12-62.805-62.805
	c0-34.69,28.119-62.805,62.805-62.805C395.721,4.703,423.841,32.818,423.841,67.508z"/>
<path fill-rule="evenodd" clip-rule="evenodd" fill="#FFFFFF" d="M217.446,112.363c-5.916,0-11.618,0.068-17.314-0.106
	c-0.515-0.017-1.396-1.55-1.41-2.394c-0.12-6.507-0.068-13.014-0.068-19.519c0-5.805-0.049-11.608,0.027-17.411
	c0.028-1.754-0.446-2.485-2.344-2.536c-6.192-0.164-6.192-0.234-6.19-6.532c0.003-2.46-0.127-4.937,0.096-7.378
	c0.06-0.676,1.068-1.435,1.815-1.834c0.545-0.292,1.373-0.053,2.077-0.071c5.215-0.147,4.35,1.061,4.917-4.885
	c0.275-2.879,0.093-5.798,0.267-8.692c0.47-7.671,6.784-14.025,14.53-14.156c5.164-0.087,10.342,0.466,15.502,0.897
	c0.629,0.055,1.655,1.102,1.676,1.718c0.147,4.198,0.076,8.404,0.076,12.692c-2.842,0-5.443-0.055-8.041,0.011
	c-4.465,0.114-5.119,0.79-5.242,5.167c-0.205,7.249-0.205,7.249,6.915,7.249c0.088,0,0.176,0,0.262,0
	c8.059,0.005,6.025-0.565,5.371,6.516c-0.055,0.608-0.249,1.204-0.321,1.809c-0.807,6.777-0.807,6.706-7.758,7.025
	c-5.261,0.242-4.58-0.51-4.602,4.808c-0.043,11.253-0.005,22.509-0.021,33.764C217.662,109.711,217.529,110.922,217.446,112.363z"/>
<path fill-rule="evenodd" clip-rule="evenodd" fill="#FFFFFF" d="M345.11,26.633c3.577,0,7.056,0,10.991,0c0,1.834,0,3.584,0,5.341
	c0,4.04,0.14,8.09-0.055,12.124c-0.12,2.543,0.587,3.492,3.271,3.381c5.021-0.206,10.059-0.058,15.091-0.058
	c0.966,0,1.931,0,3.075,0c0,4.849,0,9.388,0,14.27c-6.91,0-13.774,0-20.979,0c0,1.832,0,3.33,0,4.826
	c0,6.828-0.044,13.653,0.013,20.481c0.063,7.2,4.387,10.725,11.426,9.289c3.838-0.785,7.635-1.797,11.736-2.773
	c0,4.239,0.041,8.355-0.06,12.469c-0.01,0.477-0.766,1.264-1.268,1.343c-6.538,1.077-13.07,2.323-19.656,2.926
	c-3.031,0.275-6.285-0.397-9.252-1.267c-7.294-2.141-10.228-4.728-10.874-14.056c-0.694-10.014-0.4-20.101-0.531-30.154
	c-0.014-1.057-0.002-2.114-0.002-3.434c-3.497,0-6.692,0-10.334,0c0-3.527-0.044-6.807,0.054-10.08
	c0.017-0.422,0.704-0.974,1.206-1.211c8.945-4.238,13.55-11.656,15.498-21.041C344.622,28.23,344.875,27.475,345.11,26.633z"/>
<path fill-rule="evenodd" clip-rule="evenodd" fill="#FFFFFF" d="M57.681,89.092c-0.986,3.775-1.848,8.15-3.298,12.321
	c-1.461,4.188-3.5,8.17-5.308,12.237c-0.186,0.414-0.45,0.904-0.815,1.111c-1.54,0.856-3.135,1.625-4.71,2.423
	c-0.572-1.487-1.488-2.94-1.651-4.473c-0.96-8.812,1.695-17.14,3.663-25.556c1.183-5.071,2.489-10.118,3.549-15.214
	c0.306-1.453,0.229-3.116-0.147-4.556c-1.188-4.536-1.499-9.05,0.319-13.426c0.766-1.844,1.977-3.613,3.361-5.049
	c2.606-2.711,6.397-3.323,9.514-1.918c2.835,1.284,4.656,4.292,4.143,8.137c-0.528,3.938-1.635,7.804-2.581,11.681
	c-0.616,2.526-1.537,4.983-2.077,7.522c-1.33,6.244,3.731,11.256,10.04,10.111c3.805-0.684,6.809-2.707,8.906-5.788
	c6.056-8.908,8.098-18.797,5.656-29.26c-1.952-8.369-8.14-12.512-16.28-14.123C55.397,32.39,41.85,40.781,38.535,54.892
	c-1.42,6.042-1.123,11.828,3.072,16.918c1.196,1.449,0.199,7.645-1.418,8.498c-0.798,0.429-2.194,0.3-3.072-0.111
	c-4.28-1.993-7.101-5.452-8.56-9.849c-4.053-12.21-1.518-23.198,6.889-32.742c13.597-15.445,40.666-16.997,55.595-3.284
	c8.464,7.774,11.04,17.633,9.649,28.714c-1.155,9.176-4.132,17.629-11.078,24.116c-6.548,6.118-14.349,8.707-23.148,6.502
	C63.367,92.878,60.636,90.674,57.681,89.092z"/>
<g>
</g>
<g>
</g>
<g>
</g>
<g>
</g>
<g>
</g>
<g>
</g>
</svg>
